<svg id="Layer_1" data-name="Layer 1" xmlns="http://www.w3.org/2000/svg" viewBox="0 0 161.95 77"><title>logo_ziz1</title><path d="M184.3,30.3c2.6,2.7,3.3,2.7,1.7-.2a3.53,3.53,0,0,0-2.5-2.1C182.5,28,182.7,28.7,184.3,30.3Z" transform="translate(-24.9 -28)"/><path d="M28.3,73A12.61,12.61,0,0,0,26,76.4c0,.3,4.5.7,10,.8l10,.3L35.4,91.2,24.9,105h35l2.5-3.2,2.5-3.3-10.4-.3c-5.8-.1-10.5-.5-10.5-.8s4.4-6,9.8-12.7S64,71.9,64.4,71.2c.6-.9-3-1.2-16.6-1.1H30.5Z" transform="translate(-24.9 -28)"/><path d="M69.2,73.2c.3,3.2.4,3.3,5.6,3.6l5.2.3V70H68.9Z" transform="translate(-24.9 -28)"/><path d="M87.6,73.5,84.9,77h10c5.6,0,10.1.3,10.1.7s-4.5,6.6-10,14L85,105h34.9l2.5-3.2,2.5-3.3-10.4-.3c-5.8-.1-10.5-.5-10.5-.8s1.7-2.7,3.8-5.3,6.8-8.5,10.6-13.4l6.7-8.7H90.2Z" transform="translate(-24.9 -28)"/><path d="M50,31.5c0,3.3.2,3.5,3.5,3.5s3.5-.2,3.5-3.5S56.8,28,53.5,28,50,28.2,50,31.5Z" transform="translate(-24.9 -28)"/><path d="M117,31.5c0,3.3.2,3.5,3.5,3.5s3.5-.2,3.5-3.5-.2-3.5-3.5-3.5S117,28.2,117,31.5Z" transform="translate(-24.9 -28)"/><path d="M70,92.5V105H80V80H70Z" transform="translate(-24.9 -28)"/><path d="M49.8,43.1l-.3,5.1L37.2,55.4,24.9,62.5l7.4.3c7.3.3,7.5.2,16.1-4.8l8.8-5H99V38H91v8l-16.7-.2-16.8-.3.3-3.8.4-3.7H50.1Z" transform="translate(-24.9 -28)"/><path d="M116.8,43.1l-.3,5.2-12.4,7.1L91.7,62.5l7.1.3c6.9.3,7.3.2,16.1-4.9l9.1-5.1V38h-3.4C117.1,38,117.1,38,116.8,43.1Z" transform="translate(-24.9 -28)"/><path d="M71,59.5c0,3.4.1,3.5,4,3.5s4-.1,4-3.5S78.9,56,75,56,71,56.1,71,59.5Z" transform="translate(-24.9 -28)"/><path d="M82,59.5c0,3.3.2,3.5,3.5,3.5s3.5-.2,3.5-3.5S88.8,56,85.5,56,82,56.2,82,59.5Z" transform="translate(-24.9 -28)"/></svg>