<?xml version="1.0" standalone="no"?>
<!DOCTYPE svg PUBLIC "-//W3C//DTD SVG 20010904//EN"
 "http://www.w3.org/TR/2001/REC-SVG-20010904/DTD/svg10.dtd">
<svg version="1.0" xmlns="http://www.w3.org/2000/svg"
 width="380.000000pt" height="125.000000pt" viewBox="0 0 380.000000 125.000000"
 preserveAspectRatio="xMidYMid meet">
<metadata>
Created by potrace 1.16, written by Peter Selinger 2001-2019
</metadata>
<g transform="translate(0.000000,125.000000) scale(0.100000,-0.100000)"
fill="#000000" stroke="none">
<path d="M1843 947 c26 -27 33 -27 17 2 -6 12 -17 21 -25 21 -10 0 -8 -7 8
-23z"/>
<path d="M283 520 c-13 -15 -23 -31 -23 -34 0 -3 45 -7 100 -8 l100 -3 -106
-137 -105 -138 175 0 175 0 25 32 25 33 -104 3 c-58 1 -105 5 -105 8 0 3 44
60 98 127 54 67 102 128 106 135 6 9 -30 12 -166 11 l-173 0 -22 -29z"/>
<path d="M692 518 c3 -32 4 -33 56 -36 l52 -3 0 35 0 36 -56 0 -55 0 3 -32z"/>
<path d="M876 515 l-27 -35 100 0 c56 0 101 -3 101 -7 0 -3 -45 -66 -100 -140
l-100 -133 174 0 175 0 25 32 25 33 -104 3 c-58 1 -105 5 -105 8 0 4 17 27 38
53 21 25 68 85 106 134 l67 87 -174 0 -175 0 -26 -35z"/>
<path d="M2870 515 c0 -33 2 -35 35 -35 33 0 35 2 35 35 0 33 -2 35 -35 35
-33 0 -35 -2 -35 -35z"/>
<path d="M3540 515 c0 -33 2 -35 35 -35 33 0 35 2 35 35 0 33 -2 35 -35 35
-33 0 -35 -2 -35 -35z"/>
<path d="M700 325 l0 -125 50 0 50 0 0 125 0 125 -50 0 -50 0 0 -125z"/>
<path d="M2868 399 l-3 -51 -123 -72 -123 -71 74 -3 c73 -3 75 -2 161 48 l88
50 209 0 209 0 0 75 0 75 -40 0 -40 0 0 -40 0 -40 -167 2 -168 3 3 38 4 37
-41 0 -40 0 -3 -51z"/>
<path d="M3538 399 l-3 -52 -124 -71 -124 -71 71 -3 c69 -3 73 -2 161 49 l91
51 0 74 0 74 -34 0 c-35 0 -35 0 -38 -51z"/>
<path d="M1480 355 c0 -8 117 -64 217 -104 194 -77 332 -113 493 -130 154 -17
255 7 303 71 18 24 19 32 9 65 -6 21 -18 47 -27 58 -14 19 -15 18 -5 -8 15
-41 13 -52 -16 -86 -96 -115 -530 -68 -880 94 -52 24 -94 42 -94 40z"/>
<path d="M3080 235 c0 -34 1 -35 40 -35 39 0 40 1 40 35 0 34 -1 35 -40 35
-39 0 -40 -1 -40 -35z"/>
<path d="M3190 235 c0 -33 2 -35 35 -35 33 0 35 2 35 35 0 33 -2 35 -35 35
-33 0 -35 -2 -35 -35z"/>
</g>
</svg>
