<?xml version="1.0" standalone="no"?>
<!DOCTYPE svg PUBLIC "-//W3C//DTD SVG 20010904//EN"
 "http://www.w3.org/TR/2001/REC-SVG-20010904/DTD/svg10.dtd">
<svg version="1.0" xmlns="http://www.w3.org/2000/svg"
 width="211.000000pt" height="75.000000pt" viewBox="0 0 211.000000 75.000000"
 preserveAspectRatio="xMidYMid meet">

<g transform="translate(0.000000,75.000000) scale(0.100000,-0.100000)"
fill="#000000" stroke="none">
<path d="M376 669 c-15 -12 -67 -72 -116 -133 -91 -113 -104 -142 -80 -187 15
-26 242 -197 274 -205 37 -9 85 13 93 44 13 52 0 68 -152 188 l-39 31 61 74
c33 41 65 84 71 96 43 80 -41 148 -112 92z"/>
<path d="M886 413 c-3 -3 -6 -66 -6 -140 0 -112 2 -133 15 -133 12 0 15 14 15
63 0 50 4 68 19 81 18 16 20 14 65 -64 26 -44 51 -80 56 -80 22 0 16 22 -31
100 l-50 83 35 36 c20 20 36 40 36 44 0 19 -30 3 -70 -38 -24 -25 -48 -45 -52
-45 -4 0 -8 20 -8 44 0 43 -10 63 -24 49z"/>
<path d="M670 390 c-46 -46 -12 -110 67 -125 47 -8 63 -21 63 -49 0 -32 -19
-46 -62 -46 -30 0 -42 6 -59 30 -24 31 -39 31 -39 -1 0 -26 56 -59 101 -59 54
0 89 32 89 80 0 43 -20 63 -75 76 -68 15 -98 61 -56 84 32 17 60 12 85 -15 28
-30 36 -31 36 -6 0 48 -110 71 -150 31z"/>
<path d="M1197 403 c-9 -16 -97 -245 -97 -254 0 -22 32 -6 41 21 11 29 13 30
74 30 60 0 63 -1 75 -30 12 -28 33 -39 43 -22 6 10 -108 255 -121 260 -6 2
-12 -1 -15 -5z m41 -118 c12 -25 22 -48 22 -50 0 -3 -21 -5 -46 -5 -33 0 -45
4 -41 13 2 6 10 29 18 50 7 20 16 37 19 37 3 0 16 -20 28 -45z"/>
<path d="M1380 395 c0 -11 11 -15 40 -15 l39 0 3 -117 c3 -103 5 -118 21 -121
15 -3 17 8 17 117 l0 121 45 0 c33 0 45 4 45 15 0 12 -18 15 -105 15 -87 0
-105 -3 -105 -15z"/>
<path d="M1620 400 c0 -5 20 -38 45 -73 41 -60 45 -70 45 -126 0 -48 3 -61 15
-61 12 0 15 13 15 60 0 54 4 67 45 130 50 78 51 80 31 80 -8 0 -33 -25 -54
-55 l-39 -55 -37 55 c-32 49 -66 72 -66 45z"/>
<path d="M1882 394 c-27 -19 -30 -74 -4 -97 9 -8 42 -24 72 -34 43 -14 56 -23
58 -41 5 -34 -15 -52 -59 -52 -38 0 -79 26 -79 50 0 6 -4 10 -10 10 -5 0 -10
-11 -10 -25 0 -18 10 -31 33 -45 70 -43 157 -12 157 56 0 43 -27 71 -77 80
-55 10 -73 22 -73 49 0 47 67 60 104 20 13 -14 26 -25 30 -25 13 0 5 31 -14
50 -25 25 -95 27 -128 4z"/>
<path d="M116 284 c-3 -9 -6 -17 -6 -19 0 -2 21 -24 47 -49 l48 -45 -26 -28
c-15 -15 -32 -39 -39 -52 -11 -21 -10 -26 6 -38 10 -7 21 -13 26 -13 20 0 118
121 118 146 0 25 -114 114 -145 114 -13 0 -26 -7 -29 -16z"/>
<path d="M310 130 c-18 -23 -29 -47 -26 -55 8 -23 23 -18 42 14 l18 30 27 -20
c15 -10 32 -19 38 -19 19 0 12 25 -11 46 -55 48 -53 48 -88 4z"/>
</g>
</svg>
